<?xml version="1.0" encoding="utf-8"?>
<!-- Generator: Adobe Illustrator 13.0.0, SVG Export Plug-In . SVG Version: 6.00 Build 14948)  -->
<!DOCTYPE svg PUBLIC "-//W3C//DTD SVG 1.1//EN" "http://www.w3.org/Graphics/SVG/1.1/DTD/svg11.dtd">
<svg version="1.1" id="Layer_1" xmlns="http://www.w3.org/2000/svg" xmlns:xlink="http://www.w3.org/1999/xlink" x="0px" y="0px"
	 width="150px" height="110px" viewBox="0 0 150 110" enable-background="new 0 0 150 110" xml:space="preserve">
<g>
	<polygon fill="#C4C4C4" points="27.917,15.71 118.381,15.71 118.381,8.077 62.345,8.077 57.811,3.59 27.917,3.59 27.917,9.018 	"/>
	<rect x="31.735" y="11.896" fill="#FFFFFF" width="82.832" height="3.814"/>
	<polygon fill="#E4E4E4" points="106.285,76.27 118.381,64.178 118.381,15.71 27.917,15.71 27.917,76.273 106.289,76.273 	"/>
	<g opacity="0.75">
		<polygon fill="#FFFFFF" points="104.834,72.758 104.24,72.166 114.143,62.264 114.143,19.524 114.98,19.524 114.98,62.609 		"/>
	</g>
	<g opacity="0.59">
		<path fill="#3E4347" d="M58.919,66.182c-1.213-0.811-1.536-2.449-0.726-3.658c6.111-9.132,15.541-9.132,28.594-9.132
			c1.457,0,2.639,1.182,2.639,2.638c0,1.457-1.182,2.639-2.639,2.639c-13.279,0-19.858,0.287-24.209,6.791
			C61.762,66.67,60.125,66.986,58.919,66.182z"/>
		<circle fill="#3E4347" cx="57.654" cy="34.76" r="6.77"/>
	</g>
	<path fill="#FFFFFF" d="M61.483,33.583c-0.47,0.444-1.357,0.283-1.924-0.348c-0.585-0.628-0.685-1.52-0.192-1.95
		c0.488-0.449,1.353-0.302,1.939,0.329C61.895,32.261,61.972,33.137,61.483,33.583z"/>
	<circle opacity="0.59" fill="#3E4347" cx="88.273" cy="34.76" r="6.77"/>
	<path fill="#FFFFFF" d="M92.102,33.583c-0.469,0.444-1.355,0.283-1.922-0.348c-0.586-0.628-0.688-1.52-0.193-1.95
		c0.488-0.449,1.354-0.302,1.939,0.329C92.514,32.261,92.59,33.137,92.102,33.583z"/>
</g>
<g>
	<path fill="#888888" d="M7.86,100.324c-0.16-0.131-0.239-0.318-0.239-0.561v-9.207c0-0.334,0.093-0.6,0.278-0.793
		c0.185-0.197,0.417-0.295,0.694-0.295c0.195,0,0.396,0.051,0.602,0.154c0.206,0.104,0.378,0.252,0.517,0.447l5.464,7.881v-7.727
		c0-0.236,0.08-0.422,0.239-0.559s0.347-0.205,0.563-0.205s0.404,0.068,0.563,0.201c0.159,0.133,0.239,0.322,0.239,0.563v9.209
		c0,0.334-0.099,0.6-0.297,0.793c-0.198,0.195-0.439,0.293-0.722,0.293c-0.18,0-0.374-0.051-0.579-0.152
		c-0.206-0.104-0.373-0.244-0.501-0.426l-5.448-7.824v7.646c0,0.238-0.081,0.422-0.243,0.557c-0.162,0.133-0.352,0.199-0.567,0.199
		C8.208,100.52,8.019,100.455,7.86,100.324z"/>
	<path fill="#888888" d="M20.972,100.324c-0.505-0.213-0.917-0.504-1.235-0.869c-0.319-0.365-0.563-0.783-0.733-1.258
		c-0.17-0.473-0.255-0.979-0.255-1.52c0-0.545,0.085-1.057,0.255-1.531c0.169-0.477,0.415-0.896,0.737-1.264
		c0.321-0.363,0.733-0.652,1.234-0.863c0.502-0.211,1.064-0.316,1.687-0.316c0.818,0,1.527,0.18,2.126,0.539
		c0.6,0.361,1.046,0.838,1.342,1.432c0.296,0.596,0.444,1.264,0.444,2.004c0,0.535-0.085,1.039-0.254,1.516
		c-0.17,0.477-0.415,0.896-0.733,1.262c-0.318,0.365-0.73,0.656-1.234,0.869c-0.504,0.213-1.068,0.318-1.69,0.318
		S21.476,100.537,20.972,100.324z M24.414,98.807c0.417-0.514,0.625-1.223,0.625-2.129c0-0.9-0.211-1.611-0.633-2.135
		c-0.422-0.521-1.002-0.783-1.744-0.783c-0.746,0-1.329,0.26-1.748,0.779c-0.419,0.52-0.629,1.232-0.629,2.139
		c0,0.9,0.211,1.609,0.633,2.129s1.003,0.779,1.744,0.779C23.413,99.582,23.997,99.322,24.414,98.807z"/>
	<path fill="#888888" d="M33.231,100.293c-0.172-0.146-0.259-0.352-0.259-0.615v-9.359c0-0.236,0.086-0.439,0.259-0.605
		c0.172-0.168,0.379-0.252,0.621-0.252h3.396c2.639,0,3.958,0.934,3.958,2.801c0,0.645-0.201,1.189-0.602,1.641
		s-1,0.746-1.798,0.885v0.031c1.26,0.268,1.971,1.107,2.13,2.523l0.262,2.291c0.005,0.035,0.007,0.07,0.007,0.1
		c0,0.232-0.082,0.42-0.247,0.564c-0.165,0.143-0.358,0.215-0.579,0.215c-0.232,0-0.44-0.064-0.625-0.199s-0.291-0.324-0.316-0.572
		l-0.231-2.105c-0.047-0.428-0.104-0.764-0.174-1.008c-0.069-0.244-0.18-0.453-0.332-0.625c-0.152-0.174-0.347-0.289-0.586-0.352
		c-0.239-0.061-0.555-0.092-0.945-0.092c-0.016,0-0.029,0-0.04,0h-2.407v4.119c0,0.264-0.087,0.469-0.263,0.615
		c-0.174,0.146-0.381,0.219-0.617,0.219C33.608,100.512,33.404,100.439,33.231,100.293z M36.746,94.207
		c0.309,0,0.575-0.008,0.8-0.025c0.224-0.02,0.463-0.063,0.721-0.131c0.258-0.072,0.466-0.168,0.625-0.291
		c0.159-0.123,0.293-0.295,0.401-0.512c0.108-0.221,0.162-0.484,0.162-0.793c0-0.221-0.028-0.416-0.084-0.586
		s-0.125-0.311-0.205-0.424c-0.08-0.113-0.19-0.209-0.332-0.287c-0.142-0.076-0.271-0.135-0.39-0.174
		c-0.118-0.037-0.274-0.068-0.467-0.092c-0.193-0.021-0.348-0.035-0.467-0.039c-0.118-0.002-0.277-0.004-0.478-0.004h-2.308v3.357
		H36.746z"/>
	<path fill="#888888" d="M44.028,99.553c-0.718-0.719-1.077-1.693-1.077-2.93c0-0.523,0.083-1.021,0.251-1.488
		c0.167-0.469,0.405-0.885,0.713-1.248s0.701-0.648,1.177-0.863c0.476-0.213,1.004-0.32,1.585-0.32c0.591,0,1.116,0.1,1.571,0.301
		c0.456,0.201,0.817,0.477,1.088,0.824c0.271,0.352,0.476,0.744,0.618,1.178c0.142,0.436,0.217,0.91,0.228,1.424
		c0,0.17-0.041,0.311-0.124,0.418c-0.082,0.107-0.206,0.16-0.37,0.16h-5.171c0.021,0.855,0.25,1.49,0.687,1.908
		c0.437,0.416,1.011,0.629,1.721,0.639c0.422,0,0.808-0.078,1.157-0.234s0.708-0.369,1.073-0.637
		c0.051-0.035,0.102-0.063,0.15-0.082c0.049-0.018,0.099-0.025,0.151-0.025c0.087,0,0.168,0.023,0.243,0.074
		c0.075,0.047,0.134,0.113,0.178,0.195c0.043,0.082,0.065,0.17,0.065,0.262c0,0.088-0.02,0.174-0.058,0.254
		c-0.039,0.084-0.099,0.158-0.181,0.225c-0.798,0.705-1.76,1.057-2.887,1.057C45.675,100.633,44.745,100.27,44.028,99.553z
		 M48.839,96.068c-0.046-0.67-0.242-1.221-0.586-1.656c-0.345-0.434-0.846-0.652-1.504-0.652c-0.34,0-0.648,0.066-0.927,0.197
		c-0.277,0.131-0.505,0.309-0.683,0.531c-0.177,0.225-0.316,0.471-0.416,0.738c-0.101,0.268-0.164,0.549-0.189,0.842H48.839z"/>
	<path fill="#888888" d="M53.2,100.107c-0.571-0.357-1.003-0.836-1.297-1.436c-0.293-0.6-0.439-1.268-0.439-2.002
		c0-0.73,0.154-1.396,0.462-1.996c0.309-0.598,0.755-1.078,1.339-1.436c0.584-0.355,1.254-0.535,2.011-0.535
		c0.452,0,0.863,0.061,1.23,0.18c0.368,0.121,0.665,0.268,0.892,0.438c0.195,0.145,0.293,0.305,0.293,0.486
		c0,0.082-0.022,0.158-0.065,0.227c-0.044,0.07-0.104,0.125-0.178,0.162c-0.075,0.039-0.158,0.059-0.251,0.059
		c-0.114,0-0.224-0.031-0.332-0.092c-0.448-0.273-0.944-0.41-1.49-0.41c-0.715,0-1.288,0.268-1.717,0.799
		c-0.43,0.533-0.645,1.242-0.645,2.127c0,0.541,0.082,1.025,0.247,1.457c0.165,0.434,0.423,0.783,0.775,1.051
		c0.353,0.268,0.773,0.4,1.262,0.4c0.679,0,1.243-0.156,1.69-0.469c0.056-0.043,0.115-0.072,0.173-0.09
		C57.221,99.008,57.279,99,57.336,99c0.067,0,0.128,0.012,0.185,0.035c0.057,0.021,0.107,0.055,0.151,0.096s0.077,0.092,0.101,0.15
		c0.023,0.061,0.034,0.121,0.034,0.182c0,0.082-0.022,0.168-0.065,0.254c-0.043,0.088-0.112,0.172-0.205,0.248
		c-0.545,0.453-1.33,0.678-2.353,0.678C54.432,100.643,53.771,100.465,53.2,100.107z"/>
	<path fill="#888888" d="M61.11,100.324c-0.505-0.213-0.917-0.504-1.235-0.869s-0.563-0.783-0.733-1.258
		c-0.17-0.473-0.255-0.979-0.255-1.52c0-0.545,0.085-1.057,0.255-1.531c0.169-0.477,0.415-0.896,0.737-1.264
		c0.321-0.363,0.733-0.652,1.234-0.863c0.502-0.211,1.064-0.316,1.687-0.316c0.818,0,1.527,0.18,2.126,0.539
		c0.6,0.361,1.047,0.838,1.342,1.432c0.296,0.596,0.444,1.264,0.444,2.004c0,0.535-0.085,1.039-0.254,1.516
		c-0.17,0.477-0.415,0.896-0.733,1.262c-0.318,0.365-0.73,0.656-1.234,0.869c-0.504,0.213-1.068,0.318-1.69,0.318
		S61.614,100.537,61.11,100.324z M64.552,98.807c0.417-0.514,0.625-1.223,0.625-2.129c0-0.9-0.211-1.611-0.633-2.135
		c-0.421-0.521-1.002-0.783-1.744-0.783c-0.746,0-1.329,0.26-1.748,0.779c-0.419,0.52-0.629,1.232-0.629,2.139
		c0,0.9,0.211,1.609,0.633,2.129s1.003,0.779,1.744,0.779C63.551,99.582,64.135,99.322,64.552,98.807z"/>
	<path fill="#888888" d="M68.665,100.332c-0.15-0.127-0.224-0.309-0.224-0.545v-6.234c0-0.227,0.079-0.404,0.236-0.529
		c0.156-0.127,0.341-0.189,0.552-0.189c0.082,0,0.161,0.008,0.235,0.027c0.074,0.018,0.144,0.047,0.208,0.084
		c0.064,0.039,0.121,0.084,0.17,0.137c0.048,0.051,0.087,0.113,0.115,0.188C69.985,93.346,70,93.426,70,93.512l-0.016,0.951
		c0.128-0.479,0.39-0.881,0.783-1.205c0.394-0.324,0.851-0.486,1.371-0.486c0.185,0,0.329,0.068,0.432,0.201
		c0.103,0.133,0.155,0.295,0.155,0.479c0,0.17-0.047,0.316-0.139,0.439c-0.093,0.125-0.224,0.186-0.394,0.186
		c-0.685,0-1.221,0.16-1.609,0.479S70,95.359,70,96.014v3.773c0,0.232-0.081,0.412-0.239,0.539c-0.16,0.131-0.345,0.193-0.556,0.193
		C68.995,100.52,68.814,100.459,68.665,100.332z"/>
	<path fill="#888888" d="M75.549,100.316c-0.428-0.219-0.777-0.516-1.047-0.889c-0.269-0.371-0.477-0.797-0.62-1.275
		c-0.145-0.479-0.217-0.988-0.217-1.529c0-1.152,0.31-2.094,0.928-2.824c0.615-0.73,1.455-1.096,2.515-1.096
		c1.162,0,1.994,0.451,2.492,1.35v-3.857c0-0.232,0.076-0.412,0.232-0.537c0.154-0.127,0.336-0.189,0.547-0.189
		s0.395,0.063,0.545,0.189c0.152,0.125,0.227,0.305,0.227,0.537v9.576c0,0.23-0.076,0.414-0.23,0.545s-0.338,0.195-0.549,0.195
		c-0.246,0-0.438-0.063-0.57-0.188c-0.135-0.127-0.201-0.311-0.201-0.553v-0.547c-0.51,0.945-1.377,1.418-2.607,1.418
		C76.457,100.643,75.975,100.535,75.549,100.316z M78.4,99.373c0.301-0.141,0.535-0.346,0.707-0.611
		c0.168-0.268,0.293-0.574,0.369-0.92c0.078-0.344,0.117-0.744,0.117-1.195c0-0.299-0.025-0.584-0.074-0.857
		c-0.049-0.271-0.131-0.533-0.248-0.783c-0.115-0.248-0.256-0.465-0.424-0.648c-0.166-0.182-0.379-0.328-0.633-0.436
		c-0.256-0.107-0.539-0.162-0.854-0.162c-0.391,0-0.73,0.088-1.018,0.26c-0.289,0.172-0.512,0.402-0.668,0.691
		c-0.156,0.285-0.273,0.592-0.346,0.916c-0.076,0.324-0.113,0.664-0.113,1.02c0,0.344,0.034,0.678,0.104,1
		c0.069,0.32,0.179,0.631,0.328,0.934c0.148,0.301,0.367,0.543,0.652,0.725c0.285,0.184,0.621,0.277,1.008,0.281
		C77.736,99.586,78.1,99.516,78.4,99.373z"/>
	<path fill="#888888" d="M83.127,99.361c0-0.131,0.049-0.252,0.146-0.354c0.098-0.104,0.223-0.154,0.371-0.154
		c0.117,0,0.238,0.035,0.361,0.107c0.717,0.438,1.451,0.656,2.209,0.656c0.529,0,0.963-0.104,1.299-0.309
		c0.338-0.205,0.506-0.516,0.506-0.926c0-0.283-0.096-0.512-0.285-0.686c-0.189-0.176-0.496-0.316-0.918-0.426l-1.313-0.332
		c-0.24-0.063-0.443-0.117-0.607-0.166c-0.162-0.049-0.334-0.107-0.52-0.178c-0.186-0.068-0.336-0.139-0.451-0.211
		s-0.23-0.16-0.344-0.264c-0.113-0.102-0.199-0.215-0.262-0.34c-0.063-0.123-0.111-0.268-0.15-0.432s-0.059-0.346-0.059-0.549
		c0-0.545,0.182-0.994,0.547-1.35c0.537-0.514,1.365-0.771,2.486-0.771c0.504,0,0.975,0.059,1.412,0.174s0.805,0.252,1.104,0.404
		c0.221,0.109,0.332,0.273,0.332,0.494c0,0.063-0.012,0.123-0.031,0.182c-0.021,0.059-0.051,0.111-0.092,0.154
		s-0.092,0.078-0.154,0.104c-0.063,0.027-0.131,0.039-0.201,0.039c-0.078,0-0.162-0.016-0.254-0.047
		c-0.027-0.01-0.076-0.029-0.152-0.057c-0.072-0.027-0.137-0.053-0.188-0.074c-0.053-0.02-0.123-0.043-0.213-0.074
		c-0.09-0.027-0.172-0.053-0.248-0.076c-0.074-0.023-0.162-0.045-0.266-0.068c-0.102-0.023-0.201-0.043-0.293-0.059
		c-0.094-0.016-0.195-0.029-0.309-0.039s-0.223-0.014-0.332-0.014c-0.324,0-0.611,0.031-0.859,0.094
		c-0.25,0.066-0.453,0.176-0.611,0.334c-0.156,0.156-0.234,0.35-0.234,0.582c0,0.293,0.08,0.502,0.242,0.625
		c0.162,0.125,0.504,0.25,1.023,0.379l1.297,0.314c0.787,0.203,1.355,0.479,1.705,0.834c0.352,0.355,0.523,0.816,0.523,1.381
		c0,0.396-0.076,0.75-0.23,1.059s-0.369,0.559-0.648,0.752c-0.277,0.193-0.6,0.34-0.969,0.436c-0.367,0.1-0.773,0.148-1.215,0.148
		c-0.289,0-0.582-0.023-0.879-0.07c-0.809-0.133-1.488-0.395-2.039-0.787C83.207,99.689,83.127,99.543,83.127,99.361z"/>
	<path fill="#888888" d="M96.084,100.301c-0.168-0.146-0.254-0.354-0.254-0.623v-9.352c0-0.248,0.084-0.453,0.25-0.617
		c0.168-0.166,0.367-0.248,0.6-0.248h5.371c0.215,0,0.383,0.068,0.5,0.209c0.119,0.139,0.178,0.301,0.178,0.486
		s-0.059,0.35-0.178,0.49c-0.117,0.143-0.285,0.213-0.5,0.213h-4.469v3.271h4.26c0.217,0,0.383,0.066,0.502,0.201
		c0.117,0.133,0.176,0.293,0.176,0.479c0,0.184-0.059,0.344-0.176,0.479c-0.119,0.133-0.285,0.199-0.502,0.199h-4.26v4.189
		c0,0.27-0.088,0.477-0.264,0.623c-0.174,0.146-0.379,0.219-0.617,0.219C96.459,100.52,96.254,100.447,96.084,100.301z"/>
	<path fill="#888888" d="M106.303,100.324c-0.504-0.213-0.916-0.504-1.234-0.869c-0.32-0.365-0.564-0.783-0.734-1.258
		c-0.168-0.473-0.254-0.979-0.254-1.52c0-0.545,0.086-1.057,0.254-1.531c0.17-0.477,0.416-0.896,0.736-1.264
		c0.324-0.363,0.734-0.652,1.236-0.863c0.5-0.211,1.063-0.316,1.688-0.316c0.816,0,1.525,0.18,2.123,0.539
		c0.6,0.361,1.049,0.838,1.344,1.432c0.297,0.596,0.443,1.264,0.443,2.004c0,0.535-0.084,1.039-0.254,1.516
		s-0.414,0.896-0.732,1.262c-0.32,0.365-0.73,0.656-1.236,0.869c-0.504,0.213-1.066,0.318-1.688,0.318
		C107.369,100.643,106.807,100.537,106.303,100.324z M109.744,98.807c0.416-0.514,0.627-1.223,0.627-2.129
		c0-0.9-0.213-1.611-0.635-2.135c-0.422-0.521-1.002-0.783-1.742-0.783c-0.748,0-1.33,0.26-1.75,0.779s-0.627,1.232-0.627,2.139
		c0,0.9,0.209,1.609,0.631,2.129s1.004,0.779,1.746,0.779C108.744,99.582,109.328,99.322,109.744,98.807z"/>
	<path fill="#888888" d="M114.316,99.9c-0.516-0.498-0.775-1.242-0.775-2.234v-4.092c0-0.234,0.078-0.42,0.232-0.551
		c0.152-0.131,0.336-0.197,0.549-0.197c0.209,0,0.391,0.066,0.543,0.197c0.15,0.131,0.229,0.316,0.229,0.551v4.105
		c0,0.623,0.145,1.096,0.438,1.42c0.295,0.324,0.695,0.486,1.205,0.486c0.576,0,1.066-0.213,1.471-0.641
		c0.402-0.426,0.615-0.996,0.635-1.713v-3.658c0-0.234,0.078-0.42,0.234-0.551c0.152-0.131,0.338-0.197,0.555-0.197
		c0.209,0,0.391,0.066,0.543,0.197s0.229,0.316,0.229,0.551v6.213c0,0.232-0.076,0.412-0.23,0.539
		c-0.156,0.131-0.342,0.193-0.559,0.193c-0.209,0-0.391-0.061-0.543-0.184c-0.15-0.123-0.229-0.297-0.229-0.518v-0.557
		c-0.203,0.443-0.527,0.783-0.971,1.023c-0.443,0.238-0.959,0.357-1.545,0.357C115.504,100.643,114.834,100.396,114.316,99.9z"/>
	<path fill="#888888" d="M122.875,100.324c-0.152-0.131-0.227-0.313-0.227-0.545v-6.219c0-0.232,0.076-0.412,0.23-0.537
		c0.154-0.127,0.338-0.189,0.549-0.189c0.209,0,0.391,0.061,0.543,0.186c0.152,0.123,0.229,0.295,0.229,0.516v0.549
		c0.205-0.447,0.527-0.789,0.969-1.027c0.439-0.236,0.953-0.354,1.539-0.354c0.396,0,0.76,0.057,1.092,0.174
		c0.332,0.115,0.629,0.289,0.887,0.523c0.262,0.234,0.463,0.547,0.607,0.934c0.143,0.389,0.215,0.836,0.215,1.34v4.105
		c0,0.232-0.078,0.414-0.234,0.545c-0.158,0.131-0.342,0.195-0.553,0.195c-0.209,0-0.393-0.064-0.545-0.195
		c-0.15-0.131-0.227-0.313-0.227-0.545v-4.121c0-0.617-0.148-1.088-0.447-1.412s-0.703-0.486-1.213-0.486
		c-0.57,0-1.057,0.213-1.457,0.637c-0.402,0.426-0.613,0.996-0.633,1.717v3.666c0,0.232-0.076,0.414-0.232,0.545
		c-0.154,0.131-0.336,0.195-0.547,0.195S123.027,100.455,122.875,100.324z"/>
	<path fill="#888888" d="M133.074,100.316c-0.428-0.219-0.775-0.516-1.047-0.889c-0.27-0.371-0.477-0.797-0.621-1.275
		c-0.143-0.479-0.215-0.988-0.215-1.529c0-1.152,0.307-2.094,0.926-2.824c0.617-0.73,1.455-1.096,2.516-1.096
		c1.162,0,1.994,0.451,2.492,1.35v-3.857c0-0.232,0.078-0.412,0.232-0.537c0.154-0.127,0.336-0.189,0.549-0.189
		c0.209,0,0.391,0.063,0.543,0.189c0.15,0.125,0.229,0.305,0.229,0.537v9.576c0,0.23-0.078,0.414-0.232,0.545
		s-0.336,0.195-0.549,0.195c-0.246,0-0.436-0.063-0.57-0.188c-0.133-0.127-0.201-0.311-0.201-0.553v-0.547
		c-0.508,0.945-1.379,1.418-2.609,1.418C133.982,100.643,133.5,100.535,133.074,100.316z M135.926,99.373
		c0.301-0.141,0.537-0.346,0.705-0.611c0.17-0.268,0.293-0.574,0.371-0.92c0.078-0.344,0.115-0.744,0.115-1.195
		c0-0.299-0.023-0.584-0.074-0.857c-0.049-0.271-0.131-0.533-0.244-0.783c-0.117-0.248-0.258-0.465-0.426-0.648
		c-0.168-0.182-0.377-0.328-0.633-0.436c-0.254-0.107-0.539-0.162-0.852-0.162c-0.393,0-0.73,0.088-1.02,0.26
		s-0.512,0.402-0.668,0.691c-0.158,0.285-0.271,0.592-0.348,0.916c-0.074,0.324-0.111,0.664-0.111,1.02c0,0.344,0.035,0.678,0.105,1
		c0.068,0.32,0.178,0.631,0.326,0.934c0.15,0.301,0.367,0.543,0.652,0.725c0.285,0.184,0.621,0.277,1.008,0.281
		C135.26,99.586,135.625,99.516,135.926,99.373z"/>
</g>
</svg>
